<svg width="8" height="15" viewBox="0 0 8 15" fill="none" xmlns="http://www.w3.org/2000/svg">
<path d="M0.00236607 7.00125C0.00190973 6.7676 0.0832844 6.54116 0.232366 6.36125L5.23237 0.361252C5.4021 0.157036 5.64602 0.0286112 5.91044 0.0042315C6.17487 -0.0201482 6.43815 0.0615137 6.64237 0.231252C6.84658 0.400991 6.97501 0.644902 6.99939 0.909329C7.02377 1.17375 6.94211 1.43704 6.77237 1.64125L2.29237 7.00125L6.61237 12.3613C6.69543 12.4635 6.75746 12.5812 6.7949 12.7076C6.83233 12.8339 6.84442 12.9664 6.83048 13.0974C6.81654 13.2285 6.77685 13.3554 6.71367 13.4711C6.6505 13.5867 6.56509 13.6887 6.46237 13.7713C6.35954 13.8628 6.23892 13.9322 6.10804 13.975C5.97717 14.0178 5.83887 14.0331 5.70181 14.0199C5.56474 14.0068 5.43187 13.9655 5.31151 13.8986C5.19116 13.8317 5.08591 13.7407 5.00237 13.6313L0.172366 7.63125C0.0468502 7.44617 -0.0130048 7.22435 0.00236607 7.00125Z" fill="#8F8F8F"/>
</svg>
