<svg width="16" height="14" viewBox="0 0 16 14" fill="none" xmlns="http://www.w3.org/2000/svg">
<path d="M4.437 13.874C5.23063 13.874 5.874 13.2306 5.874 12.437C5.874 11.6434 5.23063 11 4.437 11C3.64337 11 3 11.6434 3 12.437C3 13.2306 3.64337 13.874 4.437 13.874Z" fill="white"/>
<path d="M10.452 13.97C11.2539 13.97 11.904 13.3051 11.904 12.485C11.904 11.6649 11.2539 11 10.452 11C9.65008 11 9 11.6649 9 12.485C9 13.3051 9.65008 13.97 10.452 13.97Z" fill="white"/>
<path fill-rule="evenodd" clip-rule="evenodd" d="M14.684 0.336998C13.967 0.336998 13.387 0.935998 13.387 1.675L13.215 3.018H0.556999C0.238999 3.018 0.0159988 3.305 0.0159988 3.672C0.0159988 3.811 0.0259988 3.942 0.0879988 4.047L1.299 9.501C1.339 9.673 1.467 9.8 1.63 9.87C1.70891 9.92174 1.80067 9.95048 1.895 9.953H12.36L12.186 11.046H2.564C2.245 11.046 2.063 11.102 2.063 11.469C2.063 11.836 2.245 11.943 2.564 11.943L13.354 11.944L14.514 2.996C14.571 3.003 14.625 3.014 14.684 3.014C15.399 3.014 15.979 2.414 15.979 1.676C15.979 0.935998 15.398 0.336998 14.684 0.336998V0.336998ZM12.746 6.109H11V3.968H13.078L12.746 6.109ZM2.17 8.994L1.861 6.959H4.043V8.994H2.17ZM7.969 3.969H10.016V6.016H7.969V3.969V3.969ZM7.031 6.047H4.953V3.953H7.031V6.047V6.047ZM4.031 6.037H1.834L1.52 3.971H4.032V6.037H4.031V6.037ZM4.969 6.969H7.031V9.047H4.969V6.969V6.969ZM7.969 6.953H10.031V9.047H7.969V6.953V6.953ZM10.969 9.031V6.984H12.875L12.586 9.031H10.969V9.031Z" fill="white"/>
</svg>
